# xmcd
#
# Track frame offsets:
#	150
#	20785
#	35347
#	52920
#
# Disc length: 927 seconds
# Revision: 1
# Processed by: cddbd v1.5.2PL0 Copyright (c) Steve Scherf et al.
# Submitted via: dBpowerAMP V12.0
#
DISCID=2a039d04
DTITLE=Garth Brooks - Ain't Going Down [CDS]
DYEAR=1993
DGENRE=Country*
TTITLE0=Ain't Going Down {Til The Sun Comes Up} (Radio Mix)
TTITLE1=Somewhere Otther Than The Knight
TTITLE2=Rodeo
TTITLE3=The Thunder Rolls
EXTD=
EXTT0=
EXTT1=
EXTT2=
EXTT3=
PLAYORDER=
